<?xml version="1.0" encoding="UTF-8" standalone="no"?>
<svg
   width="512"
   height="512"
   version="1.1"
   id="svg36"
   sodipodi:docname="ic_launcher_foreground.svg"
   inkscape:version="1.3 (0e150ed6c4, 2023-07-21)"
   xmlns:inkscape="http://www.inkscape.org/namespaces/inkscape"
   xmlns:sodipodi="http://sodipodi.sourceforge.net/DTD/sodipodi-0.dtd"
   xmlns:xlink="http://www.w3.org/1999/xlink"
   xmlns="http://www.w3.org/2000/svg"
   xmlns:svg="http://www.w3.org/2000/svg">
  <sodipodi:namedview
     id="namedview36"
     pagecolor="#505050"
     bordercolor="#eeeeee"
     borderopacity="1"
     inkscape:showpageshadow="0"
     inkscape:pageopacity="0"
     inkscape:pagecheckerboard="0"
     inkscape:deskcolor="#505050"
     inkscape:zoom="1.890625"
     inkscape:cx="278.47934"
     inkscape:cy="331.63636"
     inkscape:window-width="2048"
     inkscape:window-height="1195"
     inkscape:window-x="0"
     inkscape:window-y="0"
     inkscape:window-maximized="1"
     inkscape:current-layer="svg36" />
  <defs
     id="defs23">
    <linearGradient
       id="a"
       x2="0"
       y1="12.186"
       y2="140.5"
       gradientUnits="userSpaceOnUse">
      <stop
         stop-color="#ccc"
         offset="0"
         id="stop1" />
      <stop
         stop-color="#999e9e"
         offset="1"
         id="stop2" />
    </linearGradient>
    <linearGradient
       id="b"
       x1="285.59"
       x2="244.15"
       gradientUnits="userSpaceOnUse">
      <stop
         stop-color="#e3e3e3"
         offset="0"
         id="stop3" />
      <stop
         stop-color="#999e9e"
         offset="1"
         id="stop4" />
    </linearGradient>
    <linearGradient
       id="c"
       x1="290.58"
       x2="239.13"
       gradientUnits="userSpaceOnUse">
      <stop
         stop-color="#8e8e8e"
         offset="0"
         id="stop5" />
      <stop
         stop-color="#353535"
         offset="1"
         id="stop6" />
    </linearGradient>
    <linearGradient
       id="g"
       x2="0"
       y1="130.07"
       y2="520.98"
       gradientUnits="userSpaceOnUse">
      <stop
         stop-color="#e3e3e3"
         offset="0"
         id="stop7" />
      <stop
         stop-color="#999e9e"
         offset="1"
         id="stop8" />
    </linearGradient>
    <linearGradient
       id="h"
       x2="0"
       y1="445.52"
       y2="156.44"
       gradientUnits="userSpaceOnUse">
      <stop
         stop-color="#e3e3e3"
         offset="0"
         id="stop9" />
      <stop
         stop-color="#404040"
         offset="1"
         id="stop10" />
    </linearGradient>
    <linearGradient
       id="j"
       x2="0"
       y1="303"
       y2="167.67"
       gradientUnits="userSpaceOnUse">
      <stop
         stop-color="#e0e0e0"
         offset="0"
         id="stop11" />
      <stop
         stop-color="#fff"
         offset="1"
         id="stop12" />
    </linearGradient>
    <linearGradient
       id="i"
       x2="0"
       y1="11.418"
       y2="31.412"
       gradientUnits="userSpaceOnUse"
       xlink:type="simple">
      <stop
         stop-color="#e0e0e0"
         offset="0"
         id="stop13" />
      <stop
         stop-color="#cfcfe3"
         offset=".747"
         id="stop14" />
      <stop
         stop-color="#ababbf"
         offset="1"
         id="stop15" />
    </linearGradient>
    <linearGradient
       id="f"
       x1="-716.13"
       x2="-720.03"
       gradientTransform="rotate(-59.449,-1312.8,-74.523)"
       gradientUnits="userSpaceOnUse"
       xlink:type="simple">
      <stop
         stop-color="#8e8e8e"
         offset="0"
         id="stop16" />
      <stop
         stop-color="#353535"
         offset="1"
         id="stop17" />
    </linearGradient>
    <linearGradient
       id="e"
       x1="-716.65"
       x2="-719.44"
       gradientTransform="rotate(-59.449,-1312.8,-74.523)"
       gradientUnits="userSpaceOnUse"
       xlink:type="simple">
      <stop
         stop-color="#8e8e8e"
         offset="0"
         id="stop18" />
      <stop
         stop-color="#353535"
         offset="1"
         id="stop19" />
    </linearGradient>
    <linearGradient
       id="d"
       x1="-716.92"
       x2="-719.17"
       gradientTransform="rotate(-59.449,-1312.8,-74.523)"
       gradientUnits="userSpaceOnUse"
       xlink:type="simple">
      <stop
         stop-color="#e3e3e3"
         offset="0"
         id="stop20" />
      <stop
         stop-color="#999e9e"
         offset="1"
         id="stop21" />
    </linearGradient>
    <linearGradient
       id="k"
       x1="20.301"
       x2="30.116"
       gradientUnits="userSpaceOnUse"
       xlink:type="simple">
      <stop
         stop-color="#f90000"
         offset="0"
         id="stop22" />
      <stop
         stop-color="#ababbf"
         offset="1"
         id="stop23" />
    </linearGradient>
  </defs>
  <g
     transform="matrix(0.87587534,0,0,0.87587534,31.775243,31.7749)"
     id="g36">
    <path
       transform="matrix(0.92176,0,0,0.92176,25.558,25.563)"
       d="m 314.5,142.48 c 15.816,-13.555 25.853,-33.656 25.881,-56.159 -0.028,-40.957 -33.196,-74.111 -74.111,-74.139 -40.916,0.014 -74.125,33.196 -74.125,74.111 0,22.182 9.744,42.018 25.155,55.545 -35.108,9.842 -65.778,30.25 -88.392,57.583 l -10.204,-6.03 3.657,-6.226 -25.825,-15.23 -37.719,63.963 25.741,15.216 4.16,-7.022 10.847,6.407 c -7.05,19 -11,39.561 -11,61.031 0,95.665 76.177,173.53 171.27,176.2 l 0.042,0.084 h 5.012 c 97.34,-0.028 176.24,-78.927 176.3,-176.28 -0.056,-80.156 -53.507,-147.64 -126.68,-169.05 z M 300.582,114.058 V 79.173 h -71.306 v 31.339 c -4.579,-6.952 -7.245,-15.258 -7.273,-24.22 0.056,-24.429 19.795,-44.21 44.252,-44.252 24.43,0.07 44.168,19.836 44.21,44.252 0,10.54 -3.713,20.2 -9.883,27.766 z"
       fill-opacity="0.2"
       id="path23" />
    <path
       transform="matrix(0.92176,0,0,0.92176,25.558,25.563)"
       d="m 287.33,146.84 c 25.071,-8.739 43.065,-32.484 43.065,-60.515 0,-35.443 -28.729,-64.144 -64.172,-64.144 -35.415,0 -64.144,28.715 -64.158,64.144 0.014,27.682 17.561,51.176 42.158,60.194 v 0.07 c -47.476,5.905 -88.713,31.73 -115.07,68.946 l -5.514,-3.225 1.926,-3.225 -20.534,-12.145 3.644,-6.226 -8.655,-5.123 -27.626,46.848 8.64,5.082 4.147,-7.036 20.548,12.145 1.954,-3.21 5.793,3.42 c -9.534,20.98 -14.993,44.181 -14.993,68.694 0,91.868 74.474,166.37 166.36,166.37 91.854,0 166.34,-74.502 166.34,-166.37 0.014,-84.274 -62.65,-153.69 -143.85,-164.7 z M 212.06,86.297 c 0.042,-29.943 24.248,-54.135 54.191,-54.205 29.929,0.028 54.163,24.262 54.163,54.205 0,23.047 -14.434,42.716 -34.745,50.548 v -20.73 h 4.97 V 89.159 h -51.413 v 26.956 h 4.97 v 19.627 C 225.266,127.31 212.06,108.395 212.06,86.297 Z"
       fill-opacity="0.4"
       id="path24" />
    <path
       transform="matrix(0.92176,0,0,0.92176,25.558,25.563)"
       d="m 202.06,76.343 c 0.014,-35.429 28.757,-64.158 64.158,-64.158 35.457,0 64.172,28.743 64.172,64.158 0,35.457 -28.729,64.158 -64.172,64.158 -35.402,0 -64.13,-28.701 -64.158,-64.158 z m 10.009,0 c 0.042,29.943 24.248,54.135 54.191,54.219 29.929,-0.084 54.163,-24.276 54.163,-54.219 0,-29.943 -24.234,-54.135 -54.163,-54.205 -29.943,0.098 -54.149,24.29 -54.191,54.205 z"
       fill="url(#a)"
       id="path25"
       style="fill:url(#a)" />
    <path
       transform="matrix(0.92176,0,0,0.92176,25.558,25.563)"
       d="m 244.21,89.158 h 41.446 v 60.961 H 244.21 Z"
       fill="url(#b)"
       id="path26"
       style="fill:url(#b)" />
    <path
       transform="matrix(0.92176,0,0,0.92176,25.558,25.563)"
       d="m 239.2,79.177 h 51.455 v 26.956 H 239.2 Z"
       fill="url(#c)"
       id="path27"
       style="fill:url(#c)" />
    <path
       transform="matrix(12.868,0,0,12.868,10.83,27.453)"
       d="m 7.465,15.463 1.144,-1.941 1.859,1.099 -1.143,1.938 z"
       fill="url(#d)"
       id="path28"
       style="fill:url(#d)" />
    <path
       transform="matrix(12.868,0,0,12.868,10.83,27.453)"
       d="m 6.861,15.421 1.42,-2.406 1.859,1.098 -1.42,2.406 z"
       fill="url(#e)"
       id="path29"
       style="fill:url(#e)" />
    <path
       transform="matrix(12.868,0,0,12.868,10.83,27.453)"
       d="M 6.332,15.787 8.311,12.433 8.93,12.8 6.951,16.154 Z"
       fill="url(#f)"
       id="path30"
       style="fill:url(#f)" />
    <path
       transform="matrix(0.92176,0,0,0.92176,25.558,25.563)"
       d="m 264.86,135.21 v -0.028 C 172.992,135.21 98.5,209.698 98.5,301.562 c 0,91.84 74.474,166.31 166.36,166.31 91.886,0 166.34,-74.474 166.34,-166.31 0,-91.91 -74.488,-166.36 -166.34,-166.36 z"
       fill="url(#g)"
       id="path31"
       style="fill:url(#g)" />
    <path
       transform="matrix(0.92176,0,0,0.92176,25.558,25.563)"
       d="m 120.36,301.55 c 0,-79.835 64.689,-144.52 144.52,-144.54 v 9.911 c -74.335,0 -134.56,60.291 -134.56,134.6 0.112,74.293 60.222,134.42 134.56,134.54 74.335,0 134.54,-60.236 134.6,-134.54 -0.056,-74.307 -60.305,-134.58 -134.6,-134.58 v -9.911 c 79.793,0 144.48,64.73 144.54,144.54 -0.056,79.807 -64.744,144.54 -144.54,144.54 -79.835,0 -144.52,-64.73 -144.52,-144.55 z"
       fill="url(#h)"
       id="path32"
       style="fill:url(#h)" />
    <path
       transform="matrix(12.868,0,0,12.868,10.83,27.453)"
       d="m 30.117,21.453 a 9.997,9.997 0 1 0 -19.994,0 9.997,9.997 0 1 0 19.994,0"
       fill="url(#i)"
       id="path33"
       style="fill:url(#i)" />
    <path
       transform="matrix(0.92176,0,0,0.92176,25.558,25.563)"
       d="m 398.98,303.58 c 0,-74.726 -59.956,-135.31 -133.9,-135.34 -73.986,0.014 -133.94,60.612 -133.94,135.34 z"
       fill="url(#j)"
       id="path34"
       style="fill:url(#j)" />
    <g
       fill-opacity="0.7"
       id="g35">
      <path
         transform="matrix(12.868,0,0,12.868,10.83,27.453)"
         d="m 20.3,11.467 v 11.331 l 7.626,4.89 a 9.944,9.944 0 0 0 2.189,-6.232 C 30.114,15.996 25.737,11.565 20.3,11.467 Z"
         fill="url(#k)"
         id="path35"
         style="fill:url(#k)" />
    </g>
  </g>
</svg>
